<svg xmlns="http://www.w3.org/2000/svg" xmlns:xlink="http://www.w3.org/1999/xlink" width="290" height="62" viewBox="0 0 290 62">
  <defs>
    <style>
      .cls-1, .cls-2 {
        fill: #ffb03b;
      }

      .cls-1, .cls-2, .cls-3, .cls-4, .cls-5 {
        fill-rule: evenodd;
      }

      .cls-2 {
        filter: url(#filter);
      }

      .cls-3 {
        fill: #515151;
      }

      .cls-4, .cls-5 {
        fill: #009cd7;
      }

      .cls-5 {
        filter: url(#filter-2);
      }
    </style>
    <filter id="filter" x="22.094" y="-0.094" width="39.969" height="62.094" filterUnits="userSpaceOnUse">
      <feFlood result="flood" flood-color="#009cd7"/>
      <feComposite result="composite" operator="in" in2="SourceGraphic"/>
      <feBlend result="blend" in2="SourceGraphic"/>
    </filter>
    <filter id="filter-2" x="206.812" y="3.031" width="81.344" height="28.844" filterUnits="userSpaceOnUse">
      <feFlood result="flood" flood-color="#ffb03b"/>
      <feComposite result="composite" operator="in" in2="SourceGraphic"/>
      <feBlend result="blend" in2="SourceGraphic"/>
    </filter>
  </defs>
  <path id="Rectangle_2_copy_4" data-name="Rectangle 2 copy 4" class="cls-1" d="M8.8,0.027h9.763V14.489a4.243,4.243,0,0,1-4.243,4.243H0.085V8.738A8.711,8.711,0,0,1,8.8.027Zm34.731,0H53.29A8.711,8.711,0,0,1,62,8.738v9.994H47.769a4.243,4.243,0,0,1-4.243-4.243V0.027ZM0.05,43.218H13.076a5.444,5.444,0,0,1,5.444,5.444V61.923H9.174A9.124,9.124,0,0,1,.05,52.8V43.218ZM5.305,21.774h8.224a5.181,5.181,0,0,1,5.181,5.181v8.226a5.181,5.181,0,0,1-5.181,5.181H5.305A5.181,5.181,0,0,1,.124,35.181V26.955A5.181,5.181,0,0,1,5.305,21.774Z"/>
  <path id="Rectangle_2_copy_5" data-name="Rectangle 2 copy 5" class="cls-2" d="M48.669,21.774h8.224a5.181,5.181,0,0,1,5.181,5.181v8.226a5.181,5.181,0,0,1-5.181,5.181H48.669a5.181,5.181,0,0,1-5.181-5.181V26.955A5.181,5.181,0,0,1,48.669,21.774ZM27.269-.1h8.222a5.051,5.051,0,0,1,5.123,5.086V62l-9.59-.079a9.067,9.067,0,0,1-8.936-9.089V5.085A5.182,5.182,0,0,1,27.269-.1ZM40.614,43.234H61.99v9.592A9.219,9.219,0,0,1,52.965,62H40.614V43.234Z"/>
  <path id="_نامبرلنـــد_سرزمین_شمـــاره_مجـــازی_copy" data-name="!نامبرلنـــد؛ سرزمین شمـــاره مجـــازی copy" class="cls-3" d="M75.658,41.815H74.748L74.8,49.48H75.6Zm-0.4,11.067,0.977-.978-0.991-.991-0.964.978ZM86.036,46.52a3.767,3.767,0,0,0-.713.068,4.309,4.309,0,0,0-.76.217,3.805,3.805,0,0,0-.7.357,3.94,3.94,0,0,0-.607.485,3.749,3.749,0,0,0-1,1.7,3.046,3.046,0,0,0-.129.74V50.37a3.745,3.745,0,0,0,.129.971l0.061,0.231,3.93,1.059q0.014,0.136.014,0.278,0,0.1-.007.2a3.238,3.238,0,0,1-.085.526,2.763,2.763,0,0,1-.177.5,1.634,1.634,0,0,1-.282.424,2.191,2.191,0,0,1-.882.577,4.036,4.036,0,0,1-1.371.2H81.787A2.952,2.952,0,0,1,80.372,55a2.711,2.711,0,0,1-1.028-.964,3.035,3.035,0,0,1-.411-1,4.928,4.928,0,0,1-.105-0.984q0-.2.013-0.407a7.058,7.058,0,0,1,.275-1.483,10.411,10.411,0,0,1,.635-1.626L79,48.17a9.207,9.207,0,0,0-1,3.632q-0.007.129-.007,0.258a5.037,5.037,0,0,0,.129,1.141,4.023,4.023,0,0,0,.523,1.276,3.579,3.579,0,0,0,.6.723,3.712,3.712,0,0,0,.75.536,3.561,3.561,0,0,0,.848.329,3.734,3.734,0,0,0,.9.109h1.731a7.027,7.027,0,0,0,.865-0.051,3.774,3.774,0,0,0,.781-0.18A3.008,3.008,0,0,0,85.8,55.6a2.769,2.769,0,0,0,.594-0.55,2.268,2.268,0,0,0,.329-0.54,3.828,3.828,0,0,0,.21-0.618,4.876,4.876,0,0,0,.112-0.614,4.785,4.785,0,0,0,.034-0.53,2.107,2.107,0,0,0-.02-0.3,0.689,0.689,0,0,0-.095-0.265,0.722,0.722,0,0,0-.234-0.224,1.6,1.6,0,0,0-.431-0.176q-0.163-.041-0.434-0.115l-0.6-.163-0.679-.183q-0.35-.095-0.662-0.176L83.372,51q-0.241-.064-0.35-0.1a3.007,3.007,0,0,1-.054-0.564A2.876,2.876,0,0,1,83.1,49.46a2.8,2.8,0,0,1,.74-1.215,2.982,2.982,0,0,1,1.028-.665,3.41,3.41,0,0,1,1.239-.224,4.042,4.042,0,0,1,1.113.163l0.231-.8a4.733,4.733,0,0,0-1.351-.2H86.036Zm3.149,9.668a3.827,3.827,0,0,0,2.874-1,4.113,4.113,0,0,0,.974-2.974V47.851H92.2V52.21a3.425,3.425,0,0,1-.679,2.315,2.967,2.967,0,0,1-2.335.835H88.241v0.828h0.944ZM92.517,45.8l0.882-.883-0.9-.9-0.869.883ZM97.7,52.452V51.584H97.576a2.745,2.745,0,0,1-.793-0.077,0.848,0.848,0,0,1-.485-0.326,1.35,1.35,0,0,1-.2-0.642q-0.041-.407-0.041-1.039V42.745H95.205V49.5a8.632,8.632,0,0,0,.081,1.26,2.153,2.153,0,0,0,.339.92,1.567,1.567,0,0,0,.743.563,3.8,3.8,0,0,0,1.331.208h0Zm0-.868v0.868h2.728V51.584H97.7Zm2.728,0v0.868h2.851V51.584h-2.851Zm2.851,0v0.868h2.728V51.584h-2.728Zm13.019,0H116.05A2.845,2.845,0,0,1,115.3,51.5a1.845,1.845,0,0,1-.611-0.282,1.356,1.356,0,0,1-.407-0.465,1.324,1.324,0,0,1-.15-0.638l0.486-.346q0.247-.176.5-0.367l-0.115-.754q-0.11-.041-0.363-0.146l-0.611-.255-0.784-.326q-0.427-.177-0.882-0.356t-0.91-.346q-0.454-.166-0.862-0.3c-0.271-.086-0.517-0.155-0.736-0.207a2.453,2.453,0,0,0-.54-0.078,1.775,1.775,0,0,0-.743.153,2.109,2.109,0,0,0-.6.411,2.48,2.48,0,0,0-.451.6,3.269,3.269,0,0,0-.289.74l0.808,0.21a2,2,0,0,1,.5-0.944,1.068,1.068,0,0,1,.77-0.339,2,2,0,0,1,.458.075q0.3,0.075.683,0.2c0.258,0.084.539,0.182,0.845,0.3l0.946,0.353q0.489,0.183.988,0.377t0.967,0.37q-0.631.428-1.2,0.777a12.482,12.482,0,0,1-1.137.621,10.094,10.094,0,0,1-1.167.472,9.7,9.7,0,0,1-1.3.329,14.076,14.076,0,0,1-1.52.19c-0.55.041-1.149,0.047-1.873,0.047v0.868c0.66,0,1.211-.036,1.727-0.073s0.994-.088,1.435-0.156a11.367,11.367,0,0,0,1.229-.255,9.69,9.69,0,0,0,1.076-.356,9.913,9.913,0,0,0,.98-0.455q0.473-.251.934-0.543a2.1,2.1,0,0,0,.247.723,1.987,1.987,0,0,0,.493.574,1.7,1.7,0,0,0,.39.221,3.508,3.508,0,0,0,.5.166,4.443,4.443,0,0,0,.54.1,4.191,4.191,0,0,0,.49.052H116.3V51.584Zm-5.517,4.081,0.788-.788-0.8-.794-0.774.781Zm10.494-3.748a1.651,1.651,0,0,1-.455-0.068,3.993,3.993,0,0,1-.6-0.217q-0.319-.142-0.693-0.339t-0.807-.414q0.081-.224.149-0.462t0.136-.489q0.148-.543.3-0.974a3.025,3.025,0,0,1,.357-0.73,1.434,1.434,0,0,1,.505-0.458,1.557,1.557,0,0,1,.74-0.16,1.006,1.006,0,0,1,.38.071,1.524,1.524,0,0,1,.319.173,1.562,1.562,0,0,1,.248.217,2.321,2.321,0,0,1,.173.21,2.573,2.573,0,0,1,.37.743,2.726,2.726,0,0,1,.132.825,3.837,3.837,0,0,1-.105.968,2.113,2.113,0,0,1-.271.642,1.034,1.034,0,0,1-.381.353,0.929,0.929,0,0,1-.424.109h-0.074ZM118.947,47.8a3.576,3.576,0,0,0-.445.917q-0.159.5-.3,1-0.115.407-.231,0.777a2.83,2.83,0,0,1-.278.635,1.021,1.021,0,0,1-.336.363,0.837,0.837,0,0,1-.445.1H116.3v0.868l0.612-.018a1.645,1.645,0,0,0,1.453-.8l0.882,0.448q0.4,0.2.757,0.353a5.135,5.135,0,0,0,.682.234,2.626,2.626,0,0,0,.665.085,1.751,1.751,0,0,0,.665-0.119,1.721,1.721,0,0,0,.516-0.322,1.968,1.968,0,0,0,.384-0.482,2.931,2.931,0,0,0,.258-0.6,4.478,4.478,0,0,0,.146-0.676,5.325,5.325,0,0,0,.047-0.7,3.529,3.529,0,0,0-.173-1.086,3.367,3.367,0,0,0-.492-0.971,2.625,2.625,0,0,0-.818-0.757,1.934,1.934,0,0,0-.974-0.261,2.239,2.239,0,0,0-1.961,1.025h0Zm14.64,4.467a2.727,2.727,0,0,0,.882-0.5,2.379,2.379,0,0,0,.641-0.8,2.161,2.161,0,0,0,.221-0.961,2.372,2.372,0,0,0-.122-0.757,3.837,3.837,0,0,0-.336-0.723,6.518,6.518,0,0,0-.506-0.727q-0.291-.367-0.631-0.754-0.279-.326-0.577-0.659t-0.546-.6c-0.166-.181-0.3-0.329-0.408-0.445a2.119,2.119,0,0,0-.166-0.173l-0.611.557,0.53,0.591c-0.064.068-.135,0.142-0.214,0.221s-0.16.163-.241,0.251-0.163.178-.244,0.268-0.157.177-.224,0.258c-0.123.149-.258,0.316-0.408,0.5a4.627,4.627,0,0,0-.417.611,3.757,3.757,0,0,0-.322.737,2.844,2.844,0,0,0-.129.876,2.047,2.047,0,0,0,.22.934,2.474,2.474,0,0,0,.6.764,2.851,2.851,0,0,0,.883.513,3.1,3.1,0,0,0,1.082.187A3.207,3.207,0,0,0,133.587,52.264ZM133.1,47.593q0.347,0.4.607,0.73a5.99,5.99,0,0,1,.435.618,2.891,2.891,0,0,1,.261.55,1.611,1.611,0,0,1,.088.519,1.312,1.312,0,0,1-.153.618,1.578,1.578,0,0,1-.417.506,2.064,2.064,0,0,1-.621.34,2.281,2.281,0,0,1-.764.126,2.337,2.337,0,0,1-.75-0.122,2.069,2.069,0,0,1-.648-0.353,1.552,1.552,0,0,1-.407-0.5,1.286,1.286,0,0,1-.143-0.587,2.052,2.052,0,0,1,.109-0.669,3.142,3.142,0,0,1,.272-0.591,3.929,3.929,0,0,1,.356-0.509l0.356-.431c0.059-.072.123-0.148,0.194-0.227s0.142-.158.217-0.238,0.148-.156.22-0.231l0.2-.207Zm2.545,8.6a3.829,3.829,0,0,0,2.875-1,4.114,4.114,0,0,0,.974-2.974V47.851h-0.835V52.21a3.427,3.427,0,0,1-.679,2.315,2.967,2.967,0,0,1-2.335.835h-0.943v0.828h0.943Zm8.544-3.736V51.584H144.07a2.972,2.972,0,0,1-.822-0.077,0.849,0.849,0,0,1-.485-0.326,1.367,1.367,0,0,1-.2-0.642q-0.04-.407-0.04-1.039V42.745H141.67V49.5a8.529,8.529,0,0,0,.082,1.26,2.15,2.15,0,0,0,.339.92,1.57,1.57,0,0,0,.743.563,3.251,3.251,0,0,0,1.236.208h0.124Zm0-.868v0.868h2.728V51.584h-2.728Zm2.728,0v0.868h2.851l-0.006-.86Zm2.851,0v0.868h2.6V51.584h-2.6Zm11.035,0.868V51.584H160.56a1.77,1.77,0,0,1-.534-0.053,0.976,0.976,0,0,1-.39-0.217,1.955,1.955,0,0,1-.435-1.467,3.585,3.585,0,0,0-.169-1.086,3.232,3.232,0,0,0-.5-0.971,2.55,2.55,0,0,0-.814-0.757,1.942,1.942,0,0,0-.971-0.261,2.235,2.235,0,0,0-1.968,1.025,3.012,3.012,0,0,0-.248.441c-0.07.154-.135,0.312-0.193,0.475s-0.112.328-.16,0.5-0.094.335-.139,0.5q-0.115.407-.227,0.777a2.742,2.742,0,0,1-.275.635,1.071,1.071,0,0,1-.343.363,0.861,0.861,0,0,1-.451.112l-0.37-.015v0.868l0.37-.018a1.671,1.671,0,0,0,1.459-.8q0.468,0.251.869,0.458t0.76,0.353a5.035,5.035,0,0,0,.692.227,2.792,2.792,0,0,0,.665.081,1.647,1.647,0,0,0,.5-0.078,1.882,1.882,0,0,0,.461-0.221,1.857,1.857,0,0,0,.39-0.343,1.933,1.933,0,0,0,.289-0.445,1.443,1.443,0,0,0,.237.258,1.866,1.866,0,0,0,.655.384,2.41,2.41,0,0,0,.833.144h0.248Zm-3.656-.534a1.894,1.894,0,0,1-.482-0.068,4.289,4.289,0,0,1-.608-0.214c-0.215-.093-0.445-0.2-0.692-0.333s-0.515-.27-0.8-0.424c0.049-.149.1-0.3,0.142-0.462s0.093-.321.143-0.489q0.142-.543.292-0.974a2.988,2.988,0,0,1,.356-0.73,1.428,1.428,0,0,1,.506-0.458,1.571,1.571,0,0,1,.746-0.16,0.979,0.979,0,0,1,.377.071,1.606,1.606,0,0,1,.316.173,1.553,1.553,0,0,1,.247.217,2.321,2.321,0,0,1,.173.21,2.548,2.548,0,0,1,.37.743,2.728,2.728,0,0,1,.133.825,3.945,3.945,0,0,1-.1.968,2,2,0,0,1-.272.642,1.071,1.071,0,0,1-.38.353,0.908,0.908,0,0,1-.421.109h-0.04Zm3.656,0.534,0.871-.018a2.408,2.408,0,0,0,.838-0.146,2.186,2.186,0,0,0,.709-0.424q0.075-.068.156-0.153a1.484,1.484,0,0,0,.157-0.194c0.031,0.045.063,0.088,0.095,0.129a1.155,1.155,0,0,0,.1.115,2.879,2.879,0,0,0,2.756.526,2.153,2.153,0,0,0,.726-0.424q0.075-.068.156-0.153a1.4,1.4,0,0,0,.156-0.194c0.032,0.045.064,0.088,0.095,0.129a1.309,1.309,0,0,0,.1.115,2.551,2.551,0,0,0,1.887.672V52.427a2.341,2.341,0,0,0,.808-0.153,2.153,2.153,0,0,0,.679-0.417,1.962,1.962,0,0,0,.247-0.272,2.143,2.143,0,0,0,.231-0.38,2.352,2.352,0,0,0,.17-0.5,2.821,2.821,0,0,0,.064-0.628,4.458,4.458,0,0,0-.044-0.6q-0.043-.329-0.108-0.665t-0.14-.655c-0.049-.213-0.1-0.4-0.142-0.57s-0.084-.305-0.115-0.414-0.05-.17-0.055-0.183l-0.794.244s0.014,0.056.041,0.153l0.1,0.38Q170.625,48,170.7,48.3t0.136,0.614c0.042,0.21.078,0.416,0.105,0.618a4.143,4.143,0,0,1,.04.547,1.736,1.736,0,0,1-.129.709,1.362,1.362,0,0,1-.329.468,1.2,1.2,0,0,1-.448.258,1.627,1.627,0,0,1-.492.078V51.6a1.4,1.4,0,0,1-1.629-1.514V47.851h-0.835v2.234a1.7,1.7,0,0,1-.132.709,1.293,1.293,0,0,1-.343.465,1.358,1.358,0,0,1-.465.258,1.646,1.646,0,0,1-.505.081,1.4,1.4,0,0,1-1.629-1.514V47.851h-0.835v2.234a1.7,1.7,0,0,1-.132.709,1.316,1.316,0,0,1-.343.465,1.358,1.358,0,0,1-.465.258,1.653,1.653,0,0,1-.506.081l-0.952-.015v0.868ZM166.233,44l-0.848.855,0.841,0.835,0.842-.849Zm2.722-.027-0.849.849,0.856,0.842,0.841-.842Zm-1.344-1.847-0.848.849,0.855,0.842,0.841-.842Zm21.342,9.457a3.135,3.135,0,0,1-.851-0.1,1.351,1.351,0,0,1-.767-0.784,1.7,1.7,0,0,1-.109-0.618v-2.24h-0.835v4.929a2.734,2.734,0,0,1-.515,1.819,2.9,2.9,0,0,1-2.288.754h-1.595a2.87,2.87,0,0,1-1.371-.329,2.621,2.621,0,0,1-1-.934,2.933,2.933,0,0,1-.407-0.985,4.755,4.755,0,0,1-.1-0.944q0-.217.021-0.448a7.006,7.006,0,0,1,.288-1.47,11.274,11.274,0,0,1,.642-1.626l-0.747-.36a12.079,12.079,0,0,0-.747,1.908,7.424,7.424,0,0,0-.3,1.765c0,0.086-.007.172-0.007,0.258a4.432,4.432,0,0,0,.143,1.154,4.114,4.114,0,0,0,.509,1.188,3.414,3.414,0,0,0,1.3,1.226,3.692,3.692,0,0,0,1.778.431h1.595a7.322,7.322,0,0,0,.839-0.048,4.151,4.151,0,0,0,.783-0.166,3.255,3.255,0,0,0,.7-0.319,2.463,2.463,0,0,0,.594-0.513,3.5,3.5,0,0,0,.719-2.363V51.931a2.262,2.262,0,0,0,.679.373,2.417,2.417,0,0,0,.794.129l0.254,0.018V51.584h0Zm-5.7-3.353,0.882-.883-0.9-.9-0.869.883ZM194.9,51.584a1.837,1.837,0,0,1-.493-0.053,1.345,1.345,0,0,1-.472-0.224,1.216,1.216,0,0,1-.346-0.407,1.28,1.28,0,0,1-.136-0.618V47.844h-0.835v2.437a1.607,1.607,0,0,1-.132.635,1,1,0,0,1-.336.4,1.4,1.4,0,0,1-.53.21,4.525,4.525,0,0,1-.712.075l-1.959-.015v0.868l1.959-.018a3.712,3.712,0,0,0,1.269-.2,1.989,1.989,0,0,0,.869-0.631,1.784,1.784,0,0,0,.3.312,2.209,2.209,0,0,0,.713.387,2.556,2.556,0,0,0,.836.154h1.116V51.584H194.9Zm-0.857,3.5-0.855-.849-0.828.842,0.842,0.849Zm-2.769-.014-0.855-.849-0.828.842,0.842,0.849Zm9.462-3.15a1.651,1.651,0,0,1-.455-0.068,3.993,3.993,0,0,1-.6-0.217q-0.32-.142-0.693-0.339t-0.807-.414q0.081-.224.149-0.462t0.136-.489q0.148-.543.3-0.974a3.025,3.025,0,0,1,.357-0.73,1.434,1.434,0,0,1,.505-0.458,1.557,1.557,0,0,1,.74-0.16,1,1,0,0,1,.38.071,1.524,1.524,0,0,1,.319.173,1.562,1.562,0,0,1,.248.217,2.321,2.321,0,0,1,.173.21,2.573,2.573,0,0,1,.37.743,2.726,2.726,0,0,1,.132.825,3.837,3.837,0,0,1-.105.968,2.113,2.113,0,0,1-.271.642,1.04,1.04,0,0,1-.38.353,0.933,0.933,0,0,1-.425.109H200.74ZM198.412,47.8a3.576,3.576,0,0,0-.445.917q-0.159.5-.3,1-0.115.407-.231,0.777a2.83,2.83,0,0,1-.278.635,1.021,1.021,0,0,1-.336.363,0.865,0.865,0,0,1-.452.112l-0.355-.015v0.868h0.372a1.636,1.636,0,0,0,1.436-.819l0.882,0.448q0.4,0.2.757,0.353a5.135,5.135,0,0,0,.682.234,2.626,2.626,0,0,0,.665.085,1.751,1.751,0,0,0,.665-0.119A1.721,1.721,0,0,0,202,52.312a1.968,1.968,0,0,0,.384-0.482,2.931,2.931,0,0,0,.258-0.6,4.478,4.478,0,0,0,.146-0.676,5.325,5.325,0,0,0,.047-0.7,3.529,3.529,0,0,0-.173-1.086,3.367,3.367,0,0,0-.492-0.971,2.625,2.625,0,0,0-.818-0.757,1.934,1.934,0,0,0-.974-0.261,2.24,2.24,0,0,0-1.961,1.025h0Zm4.907,8.392a3.825,3.825,0,0,0,2.874-1,4.109,4.109,0,0,0,.974-2.974V47.851h-0.835V52.21a3.427,3.427,0,0,1-.678,2.315,2.969,2.969,0,0,1-2.335.835h-0.944v0.828h0.944ZM206.651,45.8l0.883-.883-0.9-.9-0.869.883Zm8.586,5.784-0.305.015a2.067,2.067,0,0,1-.52-0.068,1.393,1.393,0,0,1-.475-0.224,1.2,1.2,0,0,1-.349-0.407,1.28,1.28,0,0,1-.136-0.618V47.851h-0.835V52.21a3.422,3.422,0,0,1-.679,2.315,2.965,2.965,0,0,1-2.334.835H208.66v0.828H209.6a3.826,3.826,0,0,0,2.874-1,4.114,4.114,0,0,0,.974-2.974V51.986a2.364,2.364,0,0,0,.682.333,2.706,2.706,0,0,0,.8.115l0.305,0.018V51.584Zm0,0.868h0.992a2.268,2.268,0,0,0,.81-0.164,2.186,2.186,0,0,0,.709-0.424q0.075-.068.156-0.153a1.4,1.4,0,0,0,.156-0.194c0.032,0.045.064,0.088,0.095,0.129a1.309,1.309,0,0,0,.1.115,2.879,2.879,0,0,0,2.756.526,2.153,2.153,0,0,0,.726-0.424q0.075-.068.156-0.153a1.4,1.4,0,0,0,.156-0.194c0.032,0.045.064,0.088,0.095,0.129a1.309,1.309,0,0,0,.1.115,2.551,2.551,0,0,0,1.887.672V52.427a2.341,2.341,0,0,0,.808-0.153,2.153,2.153,0,0,0,.679-0.417,1.962,1.962,0,0,0,.247-0.272,2.143,2.143,0,0,0,.231-0.38,2.352,2.352,0,0,0,.17-0.5,2.821,2.821,0,0,0,.064-0.628,4.628,4.628,0,0,0-.044-0.6c-0.029-.22-0.066-0.441-0.108-0.665s-0.09-.442-0.14-0.655-0.1-.4-0.142-0.57-0.084-.305-0.116-0.414-0.049-.17-0.054-0.183l-0.794.244s0.014,0.056.041,0.153l0.1,0.38q0.065,0.234.136,0.533t0.135,0.614c0.043,0.21.079,0.416,0.106,0.618a4.143,4.143,0,0,1,.04.547,1.736,1.736,0,0,1-.129.709,1.362,1.362,0,0,1-.329.468,1.2,1.2,0,0,1-.448.258,1.627,1.627,0,0,1-.492.078V51.6a1.4,1.4,0,0,1-1.629-1.514V47.851h-0.835v2.234a1.7,1.7,0,0,1-.132.709,1.3,1.3,0,0,1-.343.465,1.358,1.358,0,0,1-.465.258,1.646,1.646,0,0,1-.5.081,1.4,1.4,0,0,1-1.629-1.514V47.851h-0.835v2.234a1.7,1.7,0,0,1-.132.709,1.316,1.316,0,0,1-.343.465,1.377,1.377,0,0,1-.465.258,1.978,1.978,0,0,1-.559.067h-0.992v0.868ZM234.3,50.988a0.84,0.84,0,1,0-1.188,1.188,0.825,0.825,0,0,0,.6.244,0.835,0.835,0,0,0,.591-0.244,0.815,0.815,0,0,0,0-1.188h0Zm-0.313-3.408a2.214,2.214,0,0,0-.583.1,1.793,1.793,0,0,1,.916-1.568l-0.329-.265c-0.1-.081-0.2-0.154-0.289-0.217a2.667,2.667,0,0,0-1.249,2.4,1.721,1.721,0,0,0,.326,1.073,1.243,1.243,0,0,0,1.873.081,0.942,0.942,0,0,0,.265-0.618,0.847,0.847,0,0,0-.93-0.984h0Zm10.136,3.633a0.838,0.838,0,0,1-.479-0.228,2.509,2.509,0,0,1-.485-0.421A4.868,4.868,0,0,1,242.724,50q-0.207-.309-0.411-0.6L239.68,45.38l-1.079.706,2.545,3.877a1.741,1.741,0,0,1,.21.4,0.85,0.85,0,0,1,.048.221,0.247,0.247,0,0,1-.061.17,0.612,0.612,0,0,1-.323.255,2.615,2.615,0,0,1-.648.173,4.76,4.76,0,0,1-.584.051l-0.346,0c-0.194,0-.389-0.009-0.583-0.027a4.756,4.756,0,0,1-.73-0.119,2.252,2.252,0,0,1-.58-0.221l-0.564-.326-0.638,1.12,0.557,0.326a3.212,3.212,0,0,0,.563.248,4.915,4.915,0,0,0,.648.17,6.753,6.753,0,0,0,.689.1c0.235,0.02.469,0.03,0.7,0.03,0.19,0,.374-0.007.55-0.02s0.344-.032.5-0.054a2.567,2.567,0,0,0,1.785-.869,2.736,2.736,0,0,0,1.91.86h0.124v-1.24h-0.248Zm0.248,1.24H247.1s0-.041,0-0.086l0-1.154h-2.727v1.24Zm2.727-.124v0.124h2.6v-1.24h-2.6v1.116Zm2.6-1.116v1.24h2.852v-1.24h-2.852Zm7.935,0c-0.036,0-.176,0-0.248,0a1.545,1.545,0,0,1-.248-0.124,1.744,1.744,0,0,1-.21-0.087,0.92,0.92,0,0,1-.264-0.187,0.907,0.907,0,0,1-.194-0.3,1.093,1.093,0,0,1-.075-0.428V47.844h-1.276v2.295a1.41,1.41,0,0,1-.044.343,0.689,0.689,0,0,1-.19.326,1.115,1.115,0,0,1-.431.244,2.345,2.345,0,0,1-.788.16h-1.115v1.24l1.129-.018a2.835,2.835,0,0,0,2.091-.706,1.723,1.723,0,0,0,.757.53,3.093,3.093,0,0,0,1.089.177l0.513,0.018v-1.24h-0.5ZM255.281,45.9l1.168-1.168-1.181-1.181-1.154,1.168Zm2.855,6.557a5.673,5.673,0,0,0,.783-0.062,3.714,3.714,0,0,0,.652-0.136,2.516,2.516,0,0,0,.519-0.224,2.389,2.389,0,0,0,.425-0.316,1.853,1.853,0,0,0,.346-0.451,2.367,2.367,0,0,0,.2-0.492,2.844,2.844,0,0,0,.088-0.5c0.013-.165.02-0.325,0.02-0.479V42.738H259.89v7.054a2.42,2.42,0,0,1-.064.621,0.767,0.767,0,0,1-.2.363,1.158,1.158,0,0,1-.539.282,3.407,3.407,0,0,1-.95.153h0v1.24Zm8.307-1.24a3.42,3.42,0,0,1-.372,0A0.89,0.89,0,0,1,265.686,51a1.46,1.46,0,0,1-.37-0.316,0.978,0.978,0,0,1-.159-0.594V47.844h-1.283v4.237a4.522,4.522,0,0,1-.159,1.276,2.11,2.11,0,0,1-.5.883,2.036,2.036,0,0,1-.848.513,3.946,3.946,0,0,1-1.212.166h-0.936V56.2h0.936a4.955,4.955,0,0,0,1.707-.272,3.323,3.323,0,0,0,1.253-.791,3.4,3.4,0,0,0,.773-1.266,5.05,5.05,0,0,0,.265-1.7,2.789,2.789,0,0,0,1.2.258l0.085,0.018v-1.24Zm5.207,0a1.574,1.574,0,0,1-.5-0.124A1.034,1.034,0,0,1,270.93,51a0.911,0.911,0,0,1-.265-0.187,0.923,0.923,0,0,1-.194-0.3,1.112,1.112,0,0,1-.074-0.428V47.844h-1.276v2.295a1.461,1.461,0,0,1-.044.343,0.7,0.7,0,0,1-.19.326,1.122,1.122,0,0,1-.431.244,2.254,2.254,0,0,1-.773.16h-1.24v1.24h1.24a2.836,2.836,0,0,0,2.089-.724,1.728,1.728,0,0,0,.757.53,3.1,3.1,0,0,0,1.089.177l0.528,0.018v-1.24h-0.5Zm-2.577,4.942,1.168-1.168-1.181-1.181-1.154,1.168Zm7.28-4.742a3.878,3.878,0,0,1-.486-0.177q-0.258-.112-0.556-0.268c-0.2-.1-0.417-0.215-0.652-0.333,0.072-.208.136-0.418,0.19-0.628s0.109-.412.163-0.6,0.113-.371.177-0.536a1.663,1.663,0,0,1,.237-0.431,1.029,1.029,0,0,1,.35-0.288,1.1,1.1,0,0,1,.5-0.105,1.2,1.2,0,0,1,.543.112,1.234,1.234,0,0,1,.38.289,1.464,1.464,0,0,1,.248.387,2.392,2.392,0,0,1,.139.411,2.432,2.432,0,0,1,.061.363c0.009,0.109.014,0.188,0.014,0.238a3.946,3.946,0,0,1-.051.689,2.135,2.135,0,0,1-.129.462,0.9,0.9,0,0,1-.176.278,0.75,0.75,0,0,1-.2.146,0.523,0.523,0,0,1-.184.054q-0.084.007-.132,0.007A1.617,1.617,0,0,1,276.353,51.412ZM275.3,46.955a2.185,2.185,0,0,0-.686.5,2.7,2.7,0,0,0-.465.7,7.052,7.052,0,0,0-.316.808q-0.132.414-.234,0.808a5.726,5.726,0,0,1-.224.7,1.7,1.7,0,0,1-.288.5,0.649,0.649,0,0,1-.446.252h-0.5v1.24l0.518-.018a1.79,1.79,0,0,0,1.432-.659q0.42,0.231.77,0.414a6.809,6.809,0,0,0,.669.309,4.187,4.187,0,0,0,.624.194,2.937,2.937,0,0,0,.638.068,2.464,2.464,0,0,0,.373-0.034,1.855,1.855,0,0,0,.452-0.136,1.806,1.806,0,0,0,.461-0.3,1.945,1.945,0,0,0,.411-0.519,3,3,0,0,0,.295-0.8,4.982,4.982,0,0,0,.112-1.134,4.183,4.183,0,0,0-.159-1.154,2.946,2.946,0,0,0-.486-0.984,2.394,2.394,0,0,0-.817-0.682,2.491,2.491,0,0,0-1.158-.255A2.288,2.288,0,0,0,275.3,46.955Zm8.748,4.257a3.5,3.5,0,0,1-.889-0.14,0.814,0.814,0,0,1-.482-0.272,1.074,1.074,0,0,1-.2-0.567q-0.037-.367-0.037-0.957V42.745h-1.283v6.531q0,0.529.034,0.964a3.573,3.573,0,0,0,.143.784,2.018,2.018,0,0,0,.3.611,1.527,1.527,0,0,0,.516.434,2.8,2.8,0,0,0,.787.265,5.551,5.551,0,0,0,1.106.117v-1.24Zm2.237-3.931c0.018,0.063.04,0.158,0.068,0.285s0.056,0.272.088,0.434,0.063,0.336.095,0.519,0.06,0.362.085,0.536,0.045,0.337.061,0.489,0.023,0.277.023,0.377a1.378,1.378,0,0,1-.139.679,1.478,1.478,0,0,1-.325.367,1.217,1.217,0,0,1-.705.245h-1.488v1.24l1.531-.018a2.6,2.6,0,0,0,.862-0.149,2.241,2.241,0,0,0,.77-0.458,2.325,2.325,0,0,0,.557-0.781,2.714,2.714,0,0,0,.213-1.124,4.838,4.838,0,0,0-.033-0.523q-0.035-.3-0.082-0.621t-0.109-.638c-0.04-.211-0.078-0.4-0.112-0.577s-0.064-.32-0.091-0.438-0.045-.19-0.054-0.217Zm0.142-2,1.168-1.168-1.181-1.181L285.261,44.1Z"/>
  <path id="NumberLand" class="cls-4" d="M96.258,4.981H92.363V23.914L78.132,5.337a1.784,1.784,0,0,0-1-.684,1.611,1.611,0,0,0-1.138.141,2.29,2.29,0,0,0-.861.909,2.761,2.761,0,0,0-.337,1.359v24.8h3.895V12.929l14.231,18.6a1.723,1.723,0,0,0,1.378.712,1.632,1.632,0,0,0,.764-0.187,1.936,1.936,0,0,0,.622-0.515,2.618,2.618,0,0,0,.419-0.778,2.933,2.933,0,0,0,.157-0.975V4.981ZM117.979,11.6h-3.895v15.39h-6.816a2.993,2.993,0,0,1-1.311-.29,3.1,3.1,0,0,1-1.056-.834,4.14,4.14,0,0,1-.711-1.3,5.23,5.23,0,0,1-.263-1.715V11.6h-3.894V22.845a11.912,11.912,0,0,0,.337,2.962,9.77,9.77,0,0,0,.891,2.315,6.948,6.948,0,0,0,1.3,1.706,8.222,8.222,0,0,0,1.535,1.162,6.392,6.392,0,0,0,3.146.872h8.808a1.586,1.586,0,0,0,.757-0.187,1.968,1.968,0,0,0,.614-0.515,2.492,2.492,0,0,0,.412-0.778,3.064,3.064,0,0,0,.15-0.975V11.6Zm18.111,6.823a9.2,9.2,0,0,0-.195-1.949h3.5a1.39,1.39,0,0,1,1.176.5,2.35,2.35,0,0,1,.382,1.453V31.862h3.9V18.421a9.07,9.07,0,0,0-.255-2.249,7.421,7.421,0,0,0-.674-1.753,5.413,5.413,0,0,0-.973-1.293,5.625,5.625,0,0,0-1.161-.872,5.215,5.215,0,0,0-1.221-.5A4.67,4.67,0,0,0,139.4,11.6h-5.273v1.5a5.437,5.437,0,0,0-1.767-1.143,4.881,4.881,0,0,0-1.738-.356H123.6a1.634,1.634,0,0,0-.764.187,2.031,2.031,0,0,0-.629.515,2.409,2.409,0,0,0-.419.769,2.918,2.918,0,0,0-.15.947V31.862h3.895V16.472h5.063a1.454,1.454,0,0,1,1.2.5,2.254,2.254,0,0,1,.405,1.453V31.862h3.9V18.421Zm30.2,0a9.07,9.07,0,0,0-.255-2.249,7.465,7.465,0,0,0-.674-1.753,5.442,5.442,0,0,0-.974-1.293,5.6,5.6,0,0,0-1.161-.872,5.18,5.18,0,0,0-1.221-.5,4.663,4.663,0,0,0-1.168-.159h-7.026v4.874h7.026a1.4,1.4,0,0,1,1.123.515,2.158,2.158,0,0,1,.435,1.434v6.6a2.3,2.3,0,0,1-.412,1.425,1.357,1.357,0,0,1-1.146.544h-7.026a1.407,1.407,0,0,1-1.123-.534,2.154,2.154,0,0,1-.45-1.434V3.031h-3.9V25.02a9.181,9.181,0,0,0,.255,2.259,7.189,7.189,0,0,0,.682,1.762,5.551,5.551,0,0,0,2.142,2.165,5.176,5.176,0,0,0,1.221.5,4.649,4.649,0,0,0,1.168.159h7.026a4.693,4.693,0,0,0,3.2-1.172,5.417,5.417,0,0,0,1.034-1.228,7.692,7.692,0,0,0,.7-1.453,9.136,9.136,0,0,0,.525-2.99v-6.6ZM186.5,15.188a6.385,6.385,0,0,0-1.341-2.081,5.061,5.061,0,0,0-3.483-1.509h-7.026a4.44,4.44,0,0,0-2.494.675,5.57,5.57,0,0,0-1.663,1.678,7.219,7.219,0,0,0-.921,2.175,9.269,9.269,0,0,0-.284,2.184v6.842a8.046,8.046,0,0,0,.539,3.121,6.346,6.346,0,0,0,1.341,2.081,5.058,5.058,0,0,0,3.482,1.509h7.026V27.213h-7a1.555,1.555,0,0,1-1.206-.544,2.2,2.2,0,0,1-.486-1.518v-6.8a2.53,2.53,0,0,1,.434-1.509,1.421,1.421,0,0,1,1.228-.609h7.026a1.525,1.525,0,0,1,1.176.544,2.171,2.171,0,0,1,.487,1.5,2.53,2.53,0,0,1-.435,1.509,1.419,1.419,0,0,1-1.228.609h-7.026v4.63h7.026a4.438,4.438,0,0,0,2.494-.675,5.567,5.567,0,0,0,1.663-1.678,7.188,7.188,0,0,0,.921-2.175,9.27,9.27,0,0,0,.285-2.184A8.068,8.068,0,0,0,186.5,15.188ZM203.83,11.6h-8.794a4.709,4.709,0,0,0-1.161.159,5.16,5.16,0,0,0-1.228.5,5.55,5.55,0,0,0-2.142,2.165,7.216,7.216,0,0,0-.682,1.753,9.073,9.073,0,0,0-.254,2.249V31.862h3.894V18.421a2.254,2.254,0,0,1,.405-1.453,1.455,1.455,0,0,1,1.2-.5h8.764V11.6Z"/>
  <path id="NumberLand_copy" data-name="NumberLand copy" class="cls-5" d="M226.554,26.988H210.72V4.981h-3.894V29.406a3.092,3.092,0,0,0,.149.975,2.513,2.513,0,0,0,.412.778,1.931,1.931,0,0,0,.622.515,1.658,1.658,0,0,0,.779.188h17.766V26.988ZM245.7,18.309a8.068,8.068,0,0,0-.539-3.121,6.385,6.385,0,0,0-1.341-2.081,5.061,5.061,0,0,0-3.483-1.509h-8.553v4.63h8.553a1.49,1.49,0,0,1,1.191.562A2.285,2.285,0,0,1,242,18.309v6.8a2.494,2.494,0,0,1-.434,1.5,1.429,1.429,0,0,1-1.229.6h-7a1.578,1.578,0,0,1-1.19-.534,2.089,2.089,0,0,1-.5-1.49,2.53,2.53,0,0,1,.434-1.509,1.421,1.421,0,0,1,1.228-.609h7.026V18.421H233.31a4.44,4.44,0,0,0-2.494.675,5.555,5.555,0,0,0-1.662,1.678,7.18,7.18,0,0,0-.922,2.184,9.383,9.383,0,0,0-.284,2.193,8.046,8.046,0,0,0,.539,3.121,6.346,6.346,0,0,0,1.341,2.081,5.058,5.058,0,0,0,3.482,1.509h7.026a4.438,4.438,0,0,0,2.494-.675,5.555,5.555,0,0,0,1.663-1.678,7.188,7.188,0,0,0,.921-2.174,9.27,9.27,0,0,0,.285-2.184V18.309Zm21.272,2.306a12.172,12.172,0,0,0-.33-2.962,9.448,9.448,0,0,0-.891-2.315,7.374,7.374,0,0,0-1.288-1.706,7.76,7.76,0,0,0-1.528-1.162,6.432,6.432,0,0,0-1.618-.665,6.345,6.345,0,0,0-1.551-.206h-8.778a1.631,1.631,0,0,0-.764.187,2.02,2.02,0,0,0-.629.515,2.43,2.43,0,0,0-.42.769,2.918,2.918,0,0,0-.149.947V31.862h3.894V16.472h6.816a2.993,2.993,0,0,1,1.311.291,3.088,3.088,0,0,1,1.056.834,4.145,4.145,0,0,1,.712,1.3,5.258,5.258,0,0,1,.262,1.715V31.862h3.895V20.615ZM288.153,3.031h-3.9V25.02a2.358,2.358,0,0,1-.39,1.462,1.4,1.4,0,0,1-1.183.506h-7.026a1.387,1.387,0,0,1-1.161-.506,2.4,2.4,0,0,1-.4-1.5V18.421a2.254,2.254,0,0,1,.4-1.453,1.436,1.436,0,0,1,1.183-.5h7V11.6h-7.026a5.112,5.112,0,0,0-1.767.356,4.956,4.956,0,0,0-1.776,1.172,6.525,6.525,0,0,0-1.363,2.118,8.221,8.221,0,0,0-.547,3.177v6.6a9.013,9.013,0,0,0,.128,1.453,8.847,8.847,0,0,0,.4,1.537,7.692,7.692,0,0,0,.7,1.453,5.391,5.391,0,0,0,1.034,1.228,4.693,4.693,0,0,0,3.2,1.172h7.026a4.746,4.746,0,0,0,1.176-.159,5.156,5.156,0,0,0,1.228-.5,5.573,5.573,0,0,0,1.161-.872,5.442,5.442,0,0,0,.974-1.293,7.435,7.435,0,0,0,.674-1.762,9.181,9.181,0,0,0,.255-2.259V3.031Z"/>
</svg>
